<svg width="29" height="22" viewBox="0 0 29 22" fill="none" xmlns="http://www.w3.org/2000/svg">
<path d="M6.56246 1.6875C6.56246 1.43886 6.46369 1.2004 6.28788 1.02459C6.11206 0.848772 5.8736 0.75 5.62496 0.75C5.37632 0.75 5.13787 0.848772 4.96205 1.02459C4.78624 1.2004 4.68746 1.43886 4.68746 1.6875V18.1744L2.53871 16.0237C2.36268 15.8477 2.12392 15.7488 1.87496 15.7488C1.62601 15.7488 1.38725 15.8477 1.21121 16.0237C1.03518 16.1998 0.936279 16.4385 0.936279 16.6875C0.936279 16.9365 1.03518 17.1752 1.21121 17.3512L4.96121 21.0994L4.97434 21.1125C5.15036 21.2841 5.38707 21.3793 5.6329 21.3772C5.87874 21.375 6.11379 21.2759 6.28684 21.1012L10.0368 17.3512C10.124 17.2642 10.1932 17.1608 10.2404 17.0471C10.2876 16.9333 10.312 16.8113 10.312 16.6882C10.3121 16.565 10.288 16.443 10.2409 16.3291C10.1938 16.2153 10.1248 16.1119 10.0378 16.0247C9.95073 15.9375 9.84737 15.8684 9.7336 15.8211C9.61983 15.7739 9.49787 15.7496 9.37469 15.7495C9.25151 15.7494 9.12951 15.7736 9.01567 15.8206C8.90183 15.8677 8.79838 15.9367 8.71121 16.0237L6.56246 18.1744V1.6875ZM13.125 3.5625C13.125 3.31386 13.2237 3.0754 13.3996 2.89959C13.5754 2.72377 13.8138 2.625 14.0625 2.625H27.1875C27.4361 2.625 27.6746 2.72377 27.8504 2.89959C28.0262 3.0754 28.125 3.31386 28.125 3.5625C28.125 3.81114 28.0262 4.0496 27.8504 4.22541C27.6746 4.40123 27.4361 4.5 27.1875 4.5H14.0625C13.8138 4.5 13.5754 4.40123 13.3996 4.22541C13.2237 4.0496 13.125 3.81114 13.125 3.5625ZM14.0625 8.25C13.8138 8.25 13.5754 8.34877 13.3996 8.52459C13.2237 8.7004 13.125 8.93886 13.125 9.1875C13.125 9.43614 13.2237 9.6746 13.3996 9.85041C13.5754 10.0262 13.8138 10.125 14.0625 10.125H23.4375C23.6861 10.125 23.9246 10.0262 24.1004 9.85041C24.2762 9.6746 24.375 9.43614 24.375 9.1875C24.375 8.93886 24.2762 8.7004 24.1004 8.52459C23.9246 8.34877 23.6861 8.25 23.4375 8.25H14.0625ZM14.0625 13.875C13.8138 13.875 13.5754 13.9738 13.3996 14.1496C13.2237 14.3254 13.125 14.5639 13.125 14.8125C13.125 15.0611 13.2237 15.2996 13.3996 15.4754C13.5754 15.6512 13.8138 15.75 14.0625 15.75H19.6875C19.9361 15.75 20.1746 15.6512 20.3504 15.4754C20.5262 15.2996 20.625 15.0611 20.625 14.8125C20.625 14.5639 20.5262 14.3254 20.3504 14.1496C20.1746 13.9738 19.9361 13.875 19.6875 13.875H14.0625ZM14.0625 19.5C13.8138 19.5 13.5754 19.5988 13.3996 19.7746C13.2237 19.9504 13.125 20.1889 13.125 20.4375C13.125 20.6861 13.2237 20.9246 13.3996 21.1004C13.5754 21.2762 13.8138 21.375 14.0625 21.375H15.9375C16.1861 21.375 16.4246 21.2762 16.6004 21.1004C16.7762 20.9246 16.875 20.6861 16.875 20.4375C16.875 20.1889 16.7762 19.9504 16.6004 19.7746C16.4246 19.5988 16.1861 19.5 15.9375 19.5H14.0625Z" fill="#6C757D"/>
</svg>
